<svg width="131" height="29" viewBox="0 0 131 29" fill="none" xmlns="http://www.w3.org/2000/svg">
<g clip-path="url(#clip0_117_447)">
<path d="M28.1779 12.4822C27.9466 12.4814 27.7174 12.5275 27.504 12.6176C27.2906 12.7078 27.0972 12.8403 26.9352 13.0073C26.7625 13.1699 26.6255 13.3673 26.5331 13.5868C26.4407 13.8063 26.3949 14.0431 26.3988 14.2816V20.9504C26.3943 21.4323 26.3257 21.9114 26.195 22.3748C26.0595 22.8746 25.8333 23.3447 25.5281 23.7612C25.1953 24.2065 24.7634 24.5663 24.2675 24.8114C23.6354 25.1073 22.9431 25.2482 22.247 25.2226H7.30346C6.80668 25.2264 6.31247 25.1507 5.83905 24.9984C5.41097 24.8639 5.00946 24.6546 4.65269 24.3802C4.33991 24.1412 4.07016 23.8496 3.85523 23.5181C3.66223 23.2231 3.55903 22.8775 3.55841 22.5239C3.56034 22.1692 3.45792 21.8218 3.26416 21.5261C3.07041 21.2303 2.79405 20.9994 2.47021 20.8627C2.14636 20.726 1.78965 20.6898 1.44536 20.7586C1.10108 20.8272 0.784774 20.9979 0.536622 21.2487C0.363997 21.4115 0.227068 21.6092 0.134674 21.8288C0.0422796 22.0484 -0.00352675 22.2853 0.000211728 22.5239C0.00188254 23.3317 0.172497 24.13 0.500862 24.8665C0.827214 25.6185 1.28582 26.3044 1.85441 26.8909C2.42344 27.4797 3.09546 27.9568 3.83645 28.2981C4.58615 28.6475 5.40243 28.8267 6.22794 28.8231H22.9873C24 28.8363 24.998 28.5774 25.8794 28.073C26.7332 27.5827 27.4828 26.9267 28.085 26.1426C29.2841 24.5672 29.9417 22.6391 29.9579 20.6513V14.2789C29.9585 14.0425 29.9129 13.8084 29.8236 13.59C29.7343 13.3715 29.6032 13.1731 29.4377 13.0061C29.2723 12.8391 29.0758 12.7069 28.8596 12.6169C28.6434 12.527 28.4117 12.4812 28.1779 12.4822Z" fill="black"/>
<path d="M96.4394 20.313C95.9866 19.8584 95.4513 19.4957 94.8633 19.2448C94.2483 18.9805 93.5856 18.8466 92.9174 18.8516H72.4162C72.2338 18.8521 72.0525 18.8159 71.8838 18.745C71.7145 18.6741 71.5614 18.5699 71.4328 18.4386C71.2976 18.3158 71.1899 18.1654 71.1158 17.9973C71.0422 17.8292 71.0045 17.6473 71.0057 17.4635C71.0009 17.2763 71.0362 17.0903 71.1104 16.9185C71.184 16.7467 71.294 16.5935 71.4328 16.4693C71.6978 16.2142 72.0507 16.0729 72.4162 16.0753H94.9972C95.4698 16.0753 95.9226 15.8857 96.2564 15.5482C96.5902 15.2108 96.7774 14.7531 96.7774 14.2759C96.7774 13.7986 96.5902 13.341 96.2564 13.0035C95.9226 12.6661 95.4698 12.4765 94.9972 12.4765H72.4868C71.824 12.4705 71.1672 12.6047 70.5589 12.8705C69.3859 13.3822 68.4509 14.3275 67.9454 15.5131C67.6888 16.1301 67.5566 16.7928 67.5566 17.4621C67.5566 18.1315 67.6888 18.7941 67.9454 19.411C68.4509 20.5967 69.3859 21.542 70.5589 22.0537C71.1672 22.3185 71.824 22.4524 72.4868 22.4468H93.0681C93.2482 22.4455 93.427 22.4815 93.5927 22.5526C93.7584 22.6236 93.9086 22.7282 94.033 22.8599C94.1652 22.9915 94.2699 23.1491 94.3399 23.323C94.4098 23.4968 94.4445 23.6834 94.4403 23.8711C94.4433 24.0506 94.4081 24.2285 94.3381 24.3933C94.2675 24.5581 94.1634 24.706 94.033 24.8273C93.9056 24.9542 93.7548 25.0543 93.5897 25.1219C93.4241 25.1895 93.247 25.2233 93.0681 25.2214H70.4494C69.9774 25.2214 69.5246 25.411 69.1908 25.7484C68.8571 26.0859 68.6692 26.5435 68.6692 27.0208C68.6692 27.498 68.8571 27.9557 69.1908 28.2931C69.5246 28.6306 69.9774 28.8202 70.4494 28.8202H92.9192C93.5856 28.8252 94.2471 28.6978 94.8651 28.4451C95.4549 28.206 95.9902 27.8495 96.4406 27.3967C96.8875 26.9438 97.2458 26.4096 97.497 25.8224C97.7596 25.207 97.8918 24.543 97.8852 23.8729C97.89 23.1972 97.7584 22.5276 97.497 21.9055C97.2488 21.3112 96.8893 20.7707 96.4394 20.313Z" fill="black"/>
<path d="M130.068 13.0048C129.819 12.7527 129.501 12.5809 129.155 12.5114C128.81 12.4418 128.452 12.4775 128.126 12.6139C127.801 12.7504 127.522 12.9815 127.327 13.278C127.132 13.5744 127.028 13.9228 127.028 14.2791V20.0514C126.337 19.6509 125.595 19.3468 124.822 19.1476C124.066 18.9513 123.287 18.8508 122.505 18.8485H109.636C109.15 18.8438 108.666 18.7871 108.191 18.6795C107.672 18.5673 107.176 18.3642 106.726 18.0794C106.254 17.7773 105.86 17.3663 105.576 16.8801C105.245 16.2799 105.085 15.5991 105.113 14.9126V14.2755C105.113 13.7982 104.925 13.3406 104.591 13.0031C104.258 12.6657 103.805 12.4761 103.333 12.4761C102.861 12.4761 102.408 12.6657 102.074 13.0031C101.741 13.3406 101.553 13.7982 101.553 14.2755V27.0185C101.553 27.4958 101.741 27.9535 102.074 28.2909C102.408 28.6283 102.861 28.8179 103.333 28.8179C103.805 28.8179 104.258 28.6283 104.591 28.2909C104.925 27.9535 105.113 27.4958 105.113 27.0185V21.2489C105.804 21.65 106.546 21.9541 107.319 22.1526C108.076 22.3496 108.854 22.4501 109.636 22.4518H122.503C122.976 22.4578 123.448 22.508 123.911 22.6018C124.423 22.6994 124.913 22.8899 125.358 23.164C125.819 23.4558 126.212 23.8464 126.508 24.3081C126.848 24.8653 127.028 25.5077 127.027 26.1627V27.0249C127.027 27.5021 127.214 27.9598 127.548 28.2973C127.881 28.6347 128.334 28.8243 128.806 28.8243C129.279 28.8243 129.731 28.6347 130.065 28.2973C130.398 27.9598 130.586 27.5021 130.586 27.0249V14.2818C130.591 14.0444 130.547 13.8086 130.458 13.5889C130.369 13.3692 130.236 13.1704 130.068 13.0048Z" fill="black"/>
<path d="M63.4023 17.8403C63.1175 16.9141 62.6851 16.0408 62.1234 15.2547C61.5754 14.4885 60.8893 13.8337 60.1015 13.3242C59.2895 12.8057 58.3556 12.5146 57.3955 12.481H55.5646L52.9585 16.0798H56.2467C56.9671 16.0515 57.6824 16.2128 58.3226 16.5479C58.8288 16.8268 59.2661 17.2176 59.6019 17.6912C59.9071 18.1372 60.1201 18.6411 60.2278 19.1725C60.4503 20.1466 60.4503 21.1591 60.2278 22.1332C60.1201 22.6646 59.9071 23.1685 59.6019 23.6144C59.2663 24.088 58.8289 24.4786 58.3226 24.7568C57.6825 25.0921 56.9671 25.2534 56.2467 25.225H41.2665C40.5397 25.2577 39.8172 25.0962 39.1718 24.7568C38.6733 24.4748 38.2428 24.0847 37.9113 23.6144C37.6039 23.1691 37.3894 22.6651 37.281 22.1332C37.0588 21.1591 37.0588 20.1466 37.281 19.1725C37.3895 18.6406 37.604 18.1367 37.9113 17.6912C38.2432 17.2218 38.6736 16.8323 39.1718 16.5507C39.8172 16.2112 40.5397 16.0498 41.2665 16.0825H45.3584L42.7238 12.4837H40.4887C39.4872 12.4675 38.5002 12.7268 37.6332 13.2338C36.7981 13.7284 36.0675 14.3844 35.4831 15.1643C34.888 15.9539 34.4303 16.8402 34.1296 17.7852C33.518 19.6265 33.5114 21.6182 34.1108 23.4635C34.3958 24.3898 34.8279 25.2631 35.3901 26.0492C35.9373 26.8159 36.6232 27.471 37.4115 27.9797C38.2235 28.4987 39.1576 28.7898 40.1177 28.8228H57.0254C58.027 28.8395 59.0141 28.5802 59.8808 28.0727C60.7159 27.5778 61.4468 26.922 62.0318 26.1423C62.6264 25.3525 63.084 24.4662 63.3855 23.5214C63.9968 21.6801 64.0034 19.6882 63.4035 17.843L63.4023 17.8403Z" fill="black"/>
<path d="M49.1322 19.4493L53.3913 13.7095H44.873L49.1322 19.4493Z" fill="#CF4338"/>
<path d="M49.8828 6.46646L54.2966 12.4792L58.6997 6.56046L54.2126 0.552246L49.8828 6.46646Z" fill="#691C00"/>
<path d="M49.1646 7.34436L45.2229 12.6504H53.1063L49.1646 7.34436Z" fill="#9A281E"/>
<path d="M44.0329 12.4792L53.303 0H44.2278L39.6191 6.63091L44.0329 12.4792Z" fill="#CF4338"/>
</g>
<defs>
<clipPath id="clip0_117_447">
<rect width="131" height="29" fill="white"/>
</clipPath>
</defs>
</svg>
