<svg width="470" height="414" viewBox="0 0 470 414" fill="none" xmlns="http://www.w3.org/2000/svg">
<path d="M48.7411 412.475C-73.8909 253.94 75.0631 187.877 97.6651 84.9C120.391 -18.639 232.709 -19.557 326.589 43.381C420.469 106.319 511.205 180.268 448.278 284.839C393.746 375.459 402.725 369.248 410.976 413.312L48.7411 412.475Z" fill="#F0F1F5"/>
<path d="M300.407 335.555C303.787 332.175 303.787 326.694 300.407 323.314C297.027 319.933 291.546 319.933 288.166 323.314C284.785 326.694 284.785 332.175 288.166 335.555C291.546 338.935 297.027 338.935 300.407 335.555Z" fill="white"/>
<path d="M320.866 337.426C325.287 335.606 327.395 330.547 325.575 326.126C323.755 321.706 318.696 319.597 314.276 321.417C309.855 323.237 307.747 328.296 309.567 332.717C311.387 337.138 316.446 339.246 320.866 337.426Z" fill="white"/>
<path d="M344.138 337.425C348.559 335.606 350.667 330.547 348.847 326.126C347.027 321.705 341.968 319.597 337.548 321.417C333.127 323.237 331.019 328.296 332.839 332.717C334.659 337.137 339.718 339.245 344.138 337.425Z" fill="white"/>
<path d="M372.511 331.446C373.613 326.795 370.736 322.13 366.085 321.028C361.433 319.925 356.769 322.802 355.666 327.454C354.564 332.105 357.441 336.77 362.093 337.872C366.744 338.975 371.409 336.098 372.511 331.446Z" fill="white"/>
<path d="M302.696 356.215C303.79 351.561 300.905 346.902 296.252 345.808C291.598 344.713 286.939 347.599 285.845 352.252C284.75 356.906 287.636 361.565 292.289 362.659C296.942 363.754 301.602 360.868 302.696 356.215Z" fill="white"/>
<path d="M326.142 355.608C326.906 350.888 323.7 346.443 318.98 345.679C314.261 344.915 309.816 348.122 309.052 352.841C308.288 357.561 311.494 362.006 316.214 362.77C320.933 363.534 325.378 360.327 326.142 355.608Z" fill="white"/>
<path d="M349.416 355.608C350.18 350.888 346.974 346.443 342.254 345.679C337.535 344.915 333.09 348.122 332.326 352.841C331.562 357.561 334.768 362.006 339.488 362.77C344.207 363.534 348.652 360.327 349.416 355.608Z" fill="white"/>
<path d="M370.225 360.341C373.605 356.96 373.605 351.48 370.225 348.099C366.844 344.719 361.364 344.719 357.983 348.099C354.603 351.48 354.603 356.96 357.983 360.341C361.364 363.721 366.844 363.721 370.225 360.341Z" fill="white"/>
<path d="M294.291 387.661C299.072 387.661 302.947 383.786 302.947 379.005C302.947 374.224 299.072 370.349 294.291 370.349C289.511 370.349 285.635 374.224 285.635 379.005C285.635 383.786 289.511 387.661 294.291 387.661Z" fill="white"/>
<path d="M317.564 387.661C322.345 387.661 326.22 383.786 326.22 379.005C326.22 374.224 322.345 370.349 317.564 370.349C312.784 370.349 308.908 374.224 308.908 379.005C308.908 383.786 312.784 387.661 317.564 387.661Z" fill="white"/>
<path d="M340.836 387.661C345.617 387.661 349.492 383.786 349.492 379.005C349.492 374.224 345.617 370.349 340.836 370.349C336.056 370.349 332.18 374.224 332.18 379.005C332.18 383.786 336.056 387.661 340.836 387.661Z" fill="white"/>
<path d="M364.109 387.661C368.89 387.661 372.765 383.786 372.765 379.005C372.765 374.224 368.89 370.349 364.109 370.349C359.329 370.349 355.453 374.224 355.453 379.005C355.453 383.786 359.329 387.661 364.109 387.661Z" fill="white"/>
<path d="M200.761 29.791C205.542 29.791 209.417 25.9156 209.417 21.135C209.417 16.3544 205.542 12.479 200.761 12.479C195.981 12.479 192.105 16.3544 192.105 21.135C192.105 25.9156 195.981 29.791 200.761 29.791Z" fill="white"/>
<path d="M224.034 29.791C228.815 29.791 232.69 25.9156 232.69 21.135C232.69 16.3544 228.815 12.479 224.034 12.479C219.254 12.479 215.378 16.3544 215.378 21.135C215.378 25.9156 219.254 29.791 224.034 29.791Z" fill="white"/>
<path d="M247.306 29.791C252.087 29.791 255.962 25.9156 255.962 21.135C255.962 16.3544 252.087 12.479 247.306 12.479C242.526 12.479 238.65 16.3544 238.65 21.135C238.65 25.9156 242.526 29.791 247.306 29.791Z" fill="white"/>
<path d="M177.488 54.576C182.269 54.576 186.144 50.7006 186.144 45.92C186.144 41.1394 182.269 37.264 177.488 37.264C172.707 37.264 168.832 41.1394 168.832 45.92C168.832 50.7006 172.707 54.576 177.488 54.576Z" fill="white"/>
<path d="M200.761 54.576C205.542 54.576 209.417 50.7006 209.417 45.92C209.417 41.1394 205.542 37.264 200.761 37.264C195.98 37.264 192.105 41.1394 192.105 45.92C192.105 50.7006 195.98 54.576 200.761 54.576Z" fill="white"/>
<path d="M224.034 54.576C228.814 54.576 232.69 50.7006 232.69 45.92C232.69 41.1394 228.814 37.264 224.034 37.264C219.253 37.264 215.378 41.1394 215.378 45.92C215.378 50.7006 219.253 54.576 224.034 54.576Z" fill="white"/>
<path d="M247.306 54.576C252.087 54.576 255.962 50.7006 255.962 45.92C255.962 41.1394 252.087 37.264 247.306 37.264C242.525 37.264 238.65 41.1394 238.65 45.92C238.65 50.7006 242.525 54.576 247.306 54.576Z" fill="white"/>
<path d="M180.919 78.6561C185.309 76.7654 187.336 71.6731 185.446 67.2821C183.555 62.8911 178.463 60.8643 174.072 62.755C169.681 64.6457 167.654 69.738 169.545 74.129C171.435 78.5199 176.528 80.5468 180.919 78.6561Z" fill="white"/>
<path d="M209.176 72.71C210.278 68.0585 207.401 63.394 202.75 62.2916C198.098 61.1892 193.434 64.0663 192.332 68.7178C191.229 73.3693 194.106 78.0338 198.758 79.1362C203.409 80.2386 208.074 77.3615 209.176 72.71Z" fill="white"/>
<path d="M227.33 78.7012C231.751 76.8812 233.859 71.8222 232.039 67.4016C230.219 62.981 225.16 60.8728 220.74 62.6928C216.319 64.5127 214.211 69.5717 216.031 73.9923C217.851 78.4129 222.91 80.5211 227.33 78.7012Z" fill="white"/>
<path d="M250.602 78.7008C255.023 76.8809 257.131 71.8219 255.311 67.4013C253.491 62.9807 248.432 60.8725 244.011 62.6924C239.591 64.5124 237.482 69.5714 239.302 73.992C241.122 78.4126 246.181 80.5208 250.602 78.7008Z" fill="white"/>
<path d="M447.259 367.197V413.246H254.092C248.965 413.246 244.6 409.365 242.966 403.937C242.51 402.454 242.265 400.85 242.265 399.173V381.27C242.265 379.496 242.544 377.803 243.048 376.239C244.743 370.957 249.054 367.198 254.092 367.198H447.259V367.197Z" fill="#DD5747"/>
<path d="M344.762 376.239V403.938H242.966C242.51 402.455 242.265 400.851 242.265 399.174V381.27C242.265 379.496 242.544 377.803 243.048 376.239H344.762Z" fill="#E4786B"/>
<path d="M348.939 367.197H443.833V413.25H348.939C339.346 413.25 331.57 405.473 331.57 395.88V384.566C331.57 374.974 339.346 367.197 348.939 367.197Z" fill="#E4786B"/>
<path d="M449.583 367.197H431.44V374.096H449.583C451.184 374.096 452.482 372.551 452.482 370.646C452.482 368.741 451.184 367.197 449.583 367.197Z" fill="#E4786B"/>
<path d="M449.466 406.346H431.44V413.245H449.466C451.131 413.245 452.482 411.895 452.482 410.229V409.361C452.482 407.696 451.132 406.346 449.466 406.346Z" fill="#E4786B"/>
<path d="M351.174 374.101H447.258V406.346H351.174C344.457 406.346 339.012 400.901 339.012 394.184V386.263C339.013 379.546 344.458 374.101 351.174 374.101Z" fill="#D5D7E3"/>
<path d="M355.935 378.337H447.258V406.345H348.448C345.866 406.345 343.773 404.252 343.773 401.67V390.498C343.773 383.783 349.218 378.337 355.935 378.337Z" fill="white"/>
<mask id="mask0_113_22" style="mask-type:luminance" maskUnits="userSpaceOnUse" x="343" y="378" width="105" height="29">
<path d="M355.935 378.337H447.258V406.345H348.166C345.74 406.345 343.774 404.378 343.774 401.952V390.498C343.773 383.783 349.218 378.337 355.935 378.337Z" fill="white"/>
</mask>
<g mask="url(#mask0_113_22)">
<path d="M342.924 381.979H447.258" stroke="#F0F1F5" stroke-miterlimit="10"/>
<path d="M339.369 388.399H447.258" stroke="#F0F1F5" stroke-miterlimit="10"/>
<path d="M339.369 394.819H447.258" stroke="#F0F1F5" stroke-miterlimit="10"/>
<path d="M339.369 401.24H447.258" stroke="#F0F1F5" stroke-miterlimit="10"/>
</g>
<path d="M372.763 381.979V403.938L365.211 399.495L357.66 403.938V381.979" fill="#DED7D2"/>
<path d="M378.109 399.495L368.93 394.658L363.237 399.495L357.66 381.979H372.532L378.109 399.495Z" fill="#C43F00"/>
<path d="M332.913 413.242H321.193C316.066 413.242 311.709 409.37 310.064 403.938H321.784C323.43 409.37 327.786 413.242 332.913 413.242Z" fill="#EAA105"/>
<path d="M321.868 376.236H310.148C311.857 370.951 316.15 367.196 321.193 367.196H332.913C327.871 367.195 323.577 370.951 321.868 376.236Z" fill="#EAA105"/>
<path d="M315.94 413.242H304.22C299.093 413.242 294.736 409.37 293.091 403.938H304.811C306.456 409.37 310.813 413.242 315.94 413.242Z" fill="#EAA105"/>
<path d="M304.895 376.236H293.175C294.884 370.951 299.177 367.196 304.22 367.196H315.94C310.897 367.195 306.604 370.951 304.895 376.236Z" fill="#EAA105"/>
<path d="M321.088 399.169C321.088 400.846 321.331 402.45 321.784 403.937H310.064C309.61 402.45 309.368 400.846 309.368 399.169V381.267C309.368 379.495 309.642 377.796 310.149 376.235H321.869C321.363 377.796 321.088 379.495 321.088 381.267V399.169Z" fill="#EFB945"/>
<path d="M304.114 399.169C304.114 400.846 304.357 402.45 304.81 403.937H293.09C292.636 402.45 292.394 400.846 292.394 399.169V381.267C292.394 379.495 292.668 377.796 293.175 376.235H304.895C304.389 377.796 304.114 379.495 304.114 381.267V399.169Z" fill="#EFB945"/>
<path d="M273.604 413.242H261.884C256.757 413.242 252.4 409.37 250.755 403.938H262.475C264.12 409.37 268.477 413.242 273.604 413.242Z" fill="#EAA105"/>
<path d="M262.559 376.236H250.839C252.548 370.951 256.841 367.196 261.884 367.196H273.604C268.561 367.195 264.268 370.951 262.559 376.236Z" fill="#EAA105"/>
<path d="M261.779 399.169C261.779 400.846 262.022 402.45 262.475 403.937H250.755C250.301 402.45 250.059 400.846 250.059 399.169V381.267C250.059 379.495 250.333 377.796 250.84 376.235H262.56C262.054 377.796 261.779 379.495 261.779 381.267V399.169Z" fill="#FFD47A"/>
<path d="M285.57 406.98C271.04 404.567 260.389 391.85 260.389 377.269C260.389 375.101 260.627 372.89 261.119 370.665L262.644 363.584L269.328 332.558H159.852L153.147 363.584L150.336 376.583C146.145 395.434 160.488 413.31 179.794 413.31H290.584V407.392C288.872 407.392 287.195 407.255 285.57 406.98ZM200.572 354.22C201.808 345.629 209.777 338.671 218.361 338.671C219.532 338.671 220.644 338.801 221.706 339.047C228.44 340.593 232.746 346.8 231.67 354.22C231.164 357.739 229.531 360.983 227.19 363.584C224.582 366.481 221.099 368.591 217.305 369.393C216.185 369.639 215.036 369.769 213.88 369.769C208.808 369.769 204.653 367.341 202.362 363.584C200.76 360.983 200.066 357.739 200.572 354.22Z" fill="#C5C8D8"/>
<path d="M288.901 400.492C287.369 399.285 285.96 397.927 284.696 396.446C282.976 394.445 281.517 392.212 280.368 389.82C280.021 389.09 279.696 388.339 279.407 387.58C278.692 385.73 278.157 383.801 277.832 381.807C277.203 378.1 277.268 374.199 278.143 370.253L279.581 363.584L286.257 332.558H166.492L159.772 363.584L156.636 378.071C156.354 379.321 156.188 380.571 156.116 381.807C155.986 383.772 156.116 385.709 156.463 387.58C156.6 388.339 156.781 389.083 156.998 389.82C157.677 392.19 158.732 394.423 160.09 396.446C161.08 397.92 162.229 399.278 163.515 400.492C167.727 404.488 173.428 406.98 179.83 406.98H307.607C300.461 406.98 293.995 404.531 288.901 400.492ZM207.342 354.22C208.411 346.785 214.517 340.578 221.706 339.047C222.826 338.801 223.975 338.671 225.131 338.671C233.722 338.671 239.683 345.629 238.44 354.22C237.934 357.739 236.301 360.983 233.953 363.584C230.579 367.341 225.723 369.769 220.651 369.769C219.48 369.769 218.368 369.639 217.305 369.393C213.765 368.584 210.889 366.474 209.133 363.584C207.53 360.983 206.837 357.739 207.342 354.22Z" fill="white" stroke="#C5C8D8" stroke-miterlimit="10"/>
<path d="M328.849 406.98H203.155V413.309H328.849V406.98Z" fill="white" stroke="#C5C8D8" stroke-miterlimit="10"/>
<path d="M286.255 332.56L280.911 357.403H230.897C231.248 356.37 231.508 355.308 231.669 354.215C232.752 346.796 228.441 340.59 221.704 339.046C214.516 340.58 208.41 346.786 207.347 354.215C207.187 355.308 207.146 356.37 207.207 357.403H154.486L159.85 332.56H286.255Z" fill="#C5C8D8"/>
<path d="M412.868 74.067H49.3051C39.5741 74.067 31.6851 81.956 31.6851 91.687V324.209C31.6851 333.94 39.5741 341.829 49.3051 341.829H412.869C422.6 341.829 430.489 333.94 430.489 324.209V91.688C430.488 81.956 422.599 74.067 412.868 74.067Z" fill="#C5C8D8"/>
<path d="M438.949 90.041V325.856C438.949 334.675 431.736 341.826 422.841 341.826H56.2559C47.3609 341.826 40.1479 334.675 40.1479 325.856V90.041C40.1479 81.213 47.3609 74.071 56.2559 74.071H422.841C430.731 74.071 437.295 79.69 438.675 87.123C438.858 88.065 438.949 89.044 438.949 90.041Z" fill="white" stroke="#C5C8D8" stroke-miterlimit="10"/>
<path d="M417.422 82.369H61.815C54.474 82.369 48.522 88.32 48.522 95.662V320.236C48.522 327.577 54.473 333.529 61.815 333.529H417.422C424.763 333.529 430.715 327.578 430.715 320.236V95.661C430.715 88.32 424.764 82.369 417.422 82.369Z" fill="#C5C8D8"/>
<path d="M410.717 87.653H61.815C54.474 87.653 48.522 93.604 48.522 100.946V320.235C48.522 327.576 54.473 333.528 61.815 333.528H410.717C418.058 333.528 424.01 327.577 424.01 320.235V100.946C424.01 93.604 418.058 87.653 410.717 87.653Z" fill="#F0F1F5"/>
<path d="M424.006 100.007V102.042H48.521V100.007C48.521 93.183 54.052 87.652 60.876 87.652H411.651C418.475 87.652 424.006 93.183 424.006 100.007Z" fill="#E1E2EA"/>
<path d="M65.7531 94.847C65.7531 96.73 64.2271 98.256 62.3441 98.256C60.4611 98.256 58.9351 96.73 58.9351 94.847C58.9351 92.964 60.4611 91.438 62.3441 91.438C64.2271 91.438 65.7531 92.964 65.7531 94.847Z" fill="white"/>
<path d="M77.7321 94.847C77.7321 96.73 76.2061 98.256 74.3231 98.256C72.4401 98.256 70.9141 96.73 70.9141 94.847C70.9141 92.964 72.4401 91.438 74.3231 91.438C76.2061 91.438 77.7321 92.964 77.7321 94.847Z" fill="white"/>
<path d="M89.7111 94.847C89.7111 96.73 88.1851 98.256 86.3021 98.256C84.4191 98.256 82.8931 96.73 82.8931 94.847C82.8931 92.964 84.4191 91.438 86.3021 91.438C88.1851 91.438 89.7111 92.964 89.7111 94.847Z" fill="white"/>
<path opacity="0.3" d="M386.941 115.519H303.211C297.436 115.519 292.754 120.201 292.754 125.976V302.222C292.754 307.997 297.436 312.679 303.211 312.679H386.941C392.716 312.679 397.398 307.997 397.398 302.222V125.976C397.398 120.201 392.716 115.519 386.941 115.519Z" fill="#C5C8D8"/>
<path d="M304.747 119.32V298.955C304.747 304.95 309.607 309.811 315.602 309.811H406.458C412.453 309.811 417.314 304.957 417.314 298.962C417.314 277.41 417.314 140.866 417.314 119.314C417.314 113.319 412.464 108.465 406.469 108.465C370.676 108.465 351.386 108.465 315.592 108.465C309.597 108.464 304.747 113.324 304.747 119.32Z" fill="#FBFBFC"/>
<path opacity="0.3" d="M269.352 115.519H185.622C179.847 115.519 175.165 120.201 175.165 125.976V302.222C175.165 307.997 179.847 312.679 185.622 312.679H269.352C275.127 312.679 279.809 307.997 279.809 302.222V125.976C279.809 120.201 275.127 115.519 269.352 115.519Z" fill="#C5C8D8"/>
<path d="M185.981 119.32V298.955C185.981 304.95 190.841 309.811 196.836 309.811H287.692C293.687 309.811 298.548 304.957 298.548 298.962C298.548 277.41 298.548 140.866 298.548 119.314C298.548 113.319 293.698 108.465 287.703 108.465C251.91 108.465 232.62 108.465 196.826 108.465C190.831 108.464 185.981 113.324 185.981 119.32Z" fill="white"/>
<path opacity="0.3" d="M151.105 115.519H67.375C61.6 115.519 56.918 120.201 56.918 125.976V302.222C56.918 307.997 61.6 312.679 67.375 312.679H151.105C156.88 312.679 161.562 307.997 161.562 302.222V125.976C161.561 120.201 156.88 115.519 151.105 115.519Z" fill="#C5C8D8"/>
<path d="M66.5491 119.32V298.955C66.5491 304.95 71.4091 309.811 77.4051 309.811H168.261C174.256 309.811 179.116 304.957 179.117 298.962C179.117 277.41 179.117 140.866 179.117 119.314C179.117 113.319 174.267 108.465 168.272 108.465C132.478 108.465 113.189 108.465 77.3951 108.465C71.3991 108.464 66.5491 113.324 66.5491 119.32Z" fill="#FBFBFC"/>
<path d="M206.293 228.406H278.236" stroke="#E1E2EA" stroke-width="5" stroke-miterlimit="10" stroke-linecap="round" stroke-linejoin="round"/>
<path d="M206.293 240.27H278.236" stroke="#E1E2EA" stroke-width="5" stroke-miterlimit="10" stroke-linecap="round" stroke-linejoin="round"/>
<path d="M206.293 252.134H278.236" stroke="#E1E2EA" stroke-width="5" stroke-miterlimit="10" stroke-linecap="round" stroke-linejoin="round"/>
<path d="M224.727 263.811H259.802" stroke="#E1E2EA" stroke-width="5" stroke-miterlimit="10" stroke-linecap="round" stroke-linejoin="round"/>
<path d="M206.293 125.495H278.236" stroke="#E1E2EA" stroke-width="5" stroke-miterlimit="10" stroke-linecap="round" stroke-linejoin="round"/>
<path d="M86.8611 228.406H158.804" stroke="#E1E2EA" stroke-width="5" stroke-miterlimit="10" stroke-linecap="round" stroke-linejoin="round"/>
<path d="M86.8611 240.27H158.804" stroke="#E1E2EA" stroke-width="5" stroke-miterlimit="10" stroke-linecap="round" stroke-linejoin="round"/>
<path d="M86.8611 252.134H158.804" stroke="#E1E2EA" stroke-width="5" stroke-miterlimit="10" stroke-linecap="round" stroke-linejoin="round"/>
<path d="M105.295 263.811H140.37" stroke="#E1E2EA" stroke-width="5" stroke-miterlimit="10" stroke-linecap="round" stroke-linejoin="round"/>
<path d="M86.8611 125.495H158.804" stroke="#E1E2EA" stroke-width="5" stroke-miterlimit="10" stroke-linecap="round" stroke-linejoin="round"/>
<path d="M325.06 228.406H397.003" stroke="#E1E2EA" stroke-width="5" stroke-miterlimit="10" stroke-linecap="round" stroke-linejoin="round"/>
<path d="M325.06 240.27H397.003" stroke="#E1E2EA" stroke-width="5" stroke-miterlimit="10" stroke-linecap="round" stroke-linejoin="round"/>
<path d="M325.06 252.134H397.003" stroke="#E1E2EA" stroke-width="5" stroke-miterlimit="10" stroke-linecap="round" stroke-linejoin="round"/>
<path d="M343.494 263.811H378.568" stroke="#E1E2EA" stroke-width="5" stroke-miterlimit="10" stroke-linecap="round" stroke-linejoin="round"/>
<path d="M325.06 125.495H397.003" stroke="#E1E2EA" stroke-width="5" stroke-miterlimit="10" stroke-linecap="round" stroke-linejoin="round"/>
<path d="M159.488 180.99C162.31 160.742 148.182 142.039 127.933 139.218C107.684 136.397 88.9823 150.524 86.1609 170.773C83.3395 191.022 97.4671 209.724 117.716 212.545C137.965 215.367 156.667 201.239 159.488 180.99Z" fill="#D5D7E3"/>
<mask id="mask1_113_22" style="mask-type:luminance" maskUnits="userSpaceOnUse" x="85" y="138" width="75" height="75">
<path d="M159.488 180.99C162.31 160.742 148.182 142.039 127.933 139.218C107.684 136.397 88.9823 150.524 86.1609 170.773C83.3395 191.022 97.4671 209.724 117.716 212.545C137.965 215.367 156.667 201.239 159.488 180.99Z" fill="white"/>
</mask>
<g mask="url(#mask1_113_22)">
<path d="M140.545 192.799C152.613 198.795 155.405 230.041 155.405 230.041L132.671 233.447L140.545 192.799Z" fill="#FFB72F"/>
<path d="M140.447 192.801L144.442 202.406L137.838 218.374L137.692 220.764L137.226 228.338L136.642 237.857H105.013L104.985 237.572L101.427 196.105L101.205 193.479L110.439 191.012L129.391 189.468L135.231 191.304C135.231 191.311 135.231 191.311 135.231 191.311L140.447 192.801Z" fill="#FFB72F"/>
<path d="M93.1931 202.195C92.4601 208.813 91.3531 230.36 92.8811 247.779L106.366 242.48C116.478 199.336 106.151 192.158 106.151 192.158C106.151 192.158 94.2221 192.906 93.1931 202.195Z" fill="#FFB72F"/>
<path d="M111.363 159.575C121.362 159.373 117.545 144.581 108.377 145.26C99.2091 145.939 99.4761 159.815 111.363 159.575Z" fill="black"/>
<path d="M124.181 198.82L114.079 199.143L113.369 176.908L131.207 176.338L131.67 190.837C131.807 195.109 128.454 198.684 124.181 198.82Z" fill="#A25943"/>
<path d="M131.562 186.001C124.613 187.856 118.57 187.009 119.065 174.278L131.176 173.891L131.562 186.001Z" fill="#83442D"/>
<path d="M133.898 186.043C131.947 185.212 130.5 183.361 130.295 181.104C129.998 177.839 132.416 174.94 135.682 174.642C138.946 174.349 141.847 176.763 142.143 180.03C142.287 181.611 141.806 183.155 140.788 184.375C139.77 185.596 138.339 186.347 136.757 186.491C135.747 186.584 134.772 186.416 133.898 186.043ZM138.058 176.23C137.366 175.935 136.594 175.802 135.794 175.875C133.206 176.11 131.291 178.407 131.526 180.994C131.761 183.579 134.058 185.493 136.645 185.261C137.898 185.148 139.033 184.552 139.838 183.585C140.644 182.618 141.025 181.396 140.912 180.142C140.751 178.355 139.604 176.889 138.058 176.23Z" fill="#E89400"/>
<path d="M124.661 152.683L126.414 152.524C133.613 151.871 139.979 157.178 140.631 164.377L141.19 170.546C141.799 177.257 136.852 183.191 130.141 183.799L117.673 184.93C115.903 185.091 114.338 183.786 114.178 182.016L112.807 166.9C112.155 159.701 117.462 153.335 124.661 152.683Z" fill="#A25943"/>
<path d="M137.837 168.23C137.837 169.306 137.227 170.179 136.475 170.179C135.723 170.179 135.113 169.307 135.113 168.23C135.113 167.154 135.723 166.281 136.475 166.281C137.227 166.281 137.837 167.154 137.837 168.23Z" fill="black"/>
<path d="M112.696 171.84C112.696 171.84 126.339 168.649 127.517 152.565C105.808 150.555 108.012 167.568 112.696 171.84Z" fill="black"/>
<path d="M118.294 173.322C115.004 166.919 111.955 166.442 109.474 167.7C104.927 170.004 106.757 180.794 115.149 178.619L118.294 173.322Z" fill="#A25943"/>
<path d="M122.498 152.488C122.498 152.488 136.622 151.544 140.871 167.018C141.172 153.862 132.668 151.115 122.498 152.488Z" fill="black"/>
<path d="M136.163 160.92C132.921 160.877 132.776 159.141 135.263 158.799C137.938 158.432 140.197 160.973 136.163 160.92Z" fill="black"/>
<path d="M124.805 161.95C121.562 161.907 121.418 160.171 123.905 159.829C126.58 159.462 128.84 162.003 124.805 161.95Z" fill="black"/>
<path d="M132.294 176.008C131.326 175.812 129.742 175.644 127.602 175.922C127.01 175.999 126.683 176.683 127.018 177.177C129.481 180.815 131.734 178.721 132.784 177.299C133.142 176.813 132.886 176.128 132.294 176.008Z" fill="#FDFAF7"/>
<path d="M132.918 175.239L133.068 174.011C134.301 174.162 135.118 173.428 135.47 172.691C135.818 171.964 135.877 170.882 134.998 170.03C133.874 168.938 132.695 167.652 131.679 165.651L132.782 165.092C133.715 166.932 134.812 168.127 135.859 169.142C136.971 170.221 137.256 171.823 136.585 173.224C135.91 174.639 134.47 175.428 132.918 175.239Z" fill="#74391E"/>
<path d="M110.494 171.155L109.709 172.113L114.159 175.759L114.943 174.802L110.494 171.155Z" fill="#83442D"/>
<path d="M111.163 187.458C109.211 186.627 107.765 184.776 107.561 182.52C107.386 180.597 108.161 178.702 109.632 177.449L110.433 178.391C109.268 179.383 108.654 180.885 108.792 182.408C109.028 184.993 111.323 186.908 113.911 186.674C116.499 186.439 118.413 184.143 118.179 181.555C117.944 178.969 115.648 177.053 113.06 177.289L112.948 176.057C116.217 175.761 119.115 178.177 119.41 181.444C119.707 184.71 117.29 187.61 114.023 187.906C113.011 187.999 112.036 187.83 111.163 187.458Z" fill="#E89400"/>
<path d="M102.629 192.799C113.41 211.631 136.982 207.758 140.447 192.802L122.189 187.272L102.629 192.799Z" fill="#A25943"/>
<path d="M128.204 168.943C128.204 170.019 127.594 170.892 126.842 170.892C126.09 170.892 125.48 170.02 125.48 168.943C125.48 167.867 126.09 166.994 126.842 166.994C127.595 166.994 128.204 167.867 128.204 168.943Z" fill="black"/>
</g>
<path d="M397.94 178.935C399.637 158.56 384.495 140.667 364.12 138.97C343.744 137.273 325.851 152.415 324.154 172.79C322.457 193.166 337.599 211.059 357.974 212.756C378.35 214.453 396.243 199.311 397.94 178.935Z" fill="#D5D7E3"/>
<mask id="mask2_113_22" style="mask-type:luminance" maskUnits="userSpaceOnUse" x="324" y="138" width="75" height="75">
<path d="M397.94 178.935C399.637 158.56 384.495 140.667 364.12 138.97C343.744 137.273 325.851 152.415 324.154 172.79C322.457 193.166 337.599 211.059 357.974 212.756C378.35 214.453 396.243 199.311 397.94 178.935Z" fill="white"/>
</mask>
<g mask="url(#mask2_113_22)">
<path d="M354.206 203.172C356.4 221.834 366.119 231.845 376.582 245.839C378.723 248.703 382.283 250.129 385.807 249.52C392.072 248.438 395.522 241.621 392.683 235.931L374.101 197.239C373 195.033 371.209 193.356 369.079 192.371C367.115 191.463 364.874 191.154 362.631 191.592C357.232 192.652 353.563 197.703 354.206 203.172Z" fill="#E4786B"/>
<path d="M364.807 194.785L365.962 193.838C368.544 191.723 368.573 187.783 366.021 185.63L362.014 182.249L356.381 190.735L364.807 194.785Z" fill="white"/>
<path d="M367.721 172.968L367.39 178.798L364.343 194.862L348.759 193.551L350.067 170.292L367.721 172.968Z" fill="#D87456"/>
<path d="M374.344 158.353C374.344 158.353 375.845 153.823 375.136 151.669C374.59 150.008 370.684 145.588 370.684 145.588C363.356 146.251 351.768 149.466 350.781 150.274C349.794 151.081 345.875 157.992 344.08 160.634C341.522 164.398 341.45 166.054 347.177 173.183C345.797 176.173 346.573 178.732 349.52 180.029L351.173 164.153L374.344 158.353Z" fill="black"/>
<path d="M367.353 183.137L348.978 183.335L351.017 166.074C351.025 165.417 351.072 164.775 351.173 164.152C351.354 162.865 351.722 161.646 352.239 160.501C353.115 158.593 354.403 156.906 356.008 155.586C358.107 153.853 360.764 153.067 363.602 152.589C366.17 152.156 377.589 154.441 378.011 164.241C378.038 164.869 378.149 165.508 378.148 166.166L378.128 172.432C378.107 178.361 373.282 183.158 367.353 183.137Z" fill="#E2A183"/>
<path d="M367.459 177.378C366.779 177.495 365.982 177.458 365.283 177.1C364.585 176.741 363.744 175.931 363.712 174.11L365.048 174.086C365.065 175.018 365.349 175.632 365.893 175.911C366.607 176.278 367.639 176.035 367.967 175.808L368.726 176.908C368.44 177.105 367.984 177.288 367.459 177.378Z" fill="#D87456"/>
<path d="M375.088 168.155C375.091 169.177 374.546 170.008 373.871 170.01C373.196 170.012 372.646 169.185 372.642 168.162C372.639 167.14 373.184 166.309 373.859 166.307C374.534 166.305 375.085 167.133 375.088 168.155Z" fill="black"/>
<path d="M352.245 171.242C358.812 169.955 352.904 155.935 352.904 155.935C352.904 155.935 345.852 153.82 347.532 170.569L352.245 171.242Z" fill="black"/>
<path d="M354.684 171.784C351.416 165.607 348.451 165.18 346.058 166.429C343.081 167.982 342.932 173.652 346.282 176.274C349.211 178.567 353.569 176.749 354.384 173.119L354.684 171.784Z" fill="#E2A183"/>
<path d="M370.483 174.6C370.236 174.599 369.986 174.571 369.735 174.516L369.973 173.432C371.174 173.69 372.046 173.046 372.462 172.354C372.873 171.669 373.031 170.608 372.243 169.685C371.259 168.531 370.238 167.185 369.441 165.166L370.474 164.757C371.212 166.627 372.166 167.884 373.088 168.963C374.052 170.093 374.179 171.647 373.414 172.923C372.775 173.992 371.674 174.604 370.483 174.6Z" fill="#D87456"/>
<path d="M348.567 170.916L347.786 171.705L350.348 174.24L351.129 173.451L348.567 170.916Z" fill="#D87456"/>
<path d="M374.716 162.163C371.593 161.77 371.641 160.079 374.077 160.02C376.698 159.956 378.602 162.652 374.716 162.163Z" fill="black"/>
<path d="M363.095 161.994C360.081 162.902 359.439 161.337 361.642 160.294C364.011 159.172 366.845 160.864 363.095 161.994Z" fill="black"/>
<path d="M352.851 164.362C355.56 164.588 357.817 162.479 357.817 162.479L357.703 154.861L351.263 156.487L352.851 164.362Z" fill="black"/>
<path d="M365.451 168.787C365.454 169.809 364.909 170.64 364.234 170.642C363.559 170.644 363.009 169.817 363.005 168.794C363.002 167.772 363.547 166.941 364.222 166.939C364.897 166.937 365.447 167.764 365.451 168.787Z" fill="black"/>
<path d="M355.488 159.48L355.608 171.124L352.555 171.554L350.519 162.372L355.488 159.48Z" fill="black"/>
<path d="M353.474 156.876L366.837 153.766C360.669 148.752 353.544 152.977 353.474 156.876Z" fill="black"/>
<path d="M362.135 152.871C368.346 159.137 374.168 153.762 374.168 153.762C370.546 148.171 362.135 152.871 362.135 152.871Z" fill="black"/>
<path d="M381.347 252.364L349.338 256.268L348.435 256.516L347.976 256.55L340.443 258.652C340.443 258.652 338.857 247.941 335.516 232.419C334.038 225.496 331.413 218.165 331.916 210.178C333.265 189.174 349.094 185.539 348.281 186.621L368.403 195.672C369.525 197.973 371.765 202.25 373.819 207.56C373.979 207.955 374.132 208.374 374.272 208.783C374.74 210.185 375.135 211.632 375.381 213.135C375.455 213.554 375.52 213.997 375.541 214.447C375.625 215.091 375.668 215.764 375.675 216.419C375.711 220.33 374.595 224.412 371.456 228.363L371.56 228.608L371.579 228.662L381.347 252.364Z" fill="#E4786B"/>
<path d="M358.371 191.048L347.584 186.499L368.89 213.647L365.207 194.234L358.371 191.048Z" fill="white"/>
<path d="M381.347 252.363L367.504 254.151L345.803 256.958C345.554 255.724 345.259 254.178 344.925 252.407L344.923 252.393C342.745 240.584 339.203 218.531 339.502 209.815L343.432 212.244L343.433 212.251L362.56 224.089L374.319 217.74L381.347 252.363Z" fill="#E4786B"/>
<path d="M359.762 191.632L358.478 192.452L356.052 195.086L360.981 197.414L360.08 202.421L369.468 214.383L366.106 199.136L362.929 196.708L363.05 193.229L359.762 191.632Z" fill="black"/>
<path d="M356.404 197.737L358.776 194.33C361.591 190.286 359.966 184.491 355.315 182.864C355.106 182.791 354.893 182.726 354.676 182.669L348.339 181.01L346.032 186.978L356.404 197.737Z" fill="white"/>
</g>
<path opacity="0.3" d="M199.141 321.825H279.545C284.58 321.825 288.662 317.743 288.662 312.708C288.662 307.673 284.58 303.591 279.545 303.591H199.141C194.106 303.591 190.024 307.673 190.024 312.708C190.023 317.743 194.105 321.825 199.141 321.825Z" fill="#C5C8D8"/>
<path d="M206.94 316.032H287.344C292.379 316.032 296.461 311.95 296.461 306.915C296.461 301.88 292.379 297.798 287.344 297.798H206.94C201.905 297.798 197.823 301.88 197.823 306.915C197.823 311.949 201.905 316.032 206.94 316.032Z" fill="white" stroke="#F0F1F5" stroke-miterlimit="10"/>
<path d="M215.723 300.953L217.357 304.265L221.013 304.796L218.368 307.374L218.992 311.014L215.723 309.295L212.454 311.014L213.078 307.374L210.433 304.796L214.088 304.265L215.723 300.953Z" fill="#FFB72F"/>
<path d="M231.432 300.953L233.067 304.265L236.722 304.796L234.077 307.374L234.702 311.014L231.432 309.295L228.163 311.014L228.788 307.374L226.143 304.796L229.798 304.265L231.432 300.953Z" fill="#FFB72F"/>
<path d="M247.142 300.953L248.777 304.265L252.432 304.796L249.787 307.374L250.411 311.014L247.142 309.295L243.873 311.014L244.497 307.374L241.853 304.796L245.508 304.265L247.142 300.953Z" fill="#FFB72F"/>
<path d="M262.852 300.953L264.486 304.265L268.141 304.796L265.496 307.374L266.121 311.014L262.852 309.295L259.582 311.014L260.207 307.374L257.562 304.796L261.217 304.265L262.852 300.953Z" fill="#FFB72F"/>
<path d="M278.561 300.953L280.196 304.265L283.851 304.796L281.206 307.374L281.83 311.014L278.561 309.295L275.292 311.014L275.916 307.374L273.272 304.796L276.927 304.265L278.561 300.953Z" fill="#D5D7E3"/>
<path d="M278.56 300.951V309.291L275.292 311.013L275.916 307.374L273.272 304.795L276.931 304.264L278.56 300.951Z" fill="#FFB72F"/>
<path opacity="0.3" d="M78.418 321.825H158.822C163.857 321.825 167.939 317.743 167.939 312.708C167.939 307.673 163.857 303.591 158.822 303.591H78.418C73.383 303.591 69.301 307.673 69.301 312.708C69.301 317.743 73.383 321.825 78.418 321.825Z" fill="#C5C8D8"/>
<path d="M86.2181 316.032H166.622C171.657 316.032 175.739 311.95 175.739 306.915C175.739 301.88 171.657 297.798 166.622 297.798H86.2181C81.1831 297.798 77.1011 301.88 77.1011 306.915C77.1001 311.949 81.1821 316.032 86.2181 316.032Z" fill="white" stroke="#F0F1F5" stroke-miterlimit="10"/>
<path d="M95.0009 300.953L96.6349 304.265L100.29 304.796L97.6449 307.374L98.2699 311.014L95.0009 309.295L91.7309 311.014L92.3559 307.374L89.7109 304.796L93.3659 304.265L95.0009 300.953Z" fill="#FFB72F"/>
<path d="M110.71 300.953L112.345 304.265L116 304.796L113.355 307.374L113.979 311.014L110.71 309.295L107.441 311.014L108.065 307.374L105.42 304.796L109.076 304.265L110.71 300.953Z" fill="#FFB72F"/>
<path d="M126.42 300.953L128.054 304.265L131.709 304.796L129.064 307.374L129.689 311.014L126.42 309.295L123.151 311.014L123.775 307.374L121.13 304.796L124.785 304.265L126.42 300.953Z" fill="#D5D7E3"/>
<path d="M142.129 300.953L143.764 304.265L147.419 304.796L144.774 307.374L145.398 311.014L142.129 309.295L138.86 311.014L139.484 307.374L136.84 304.796L140.495 304.265L142.129 300.953Z" fill="#D5D7E3"/>
<path d="M157.839 300.953L159.473 304.265L163.128 304.796L160.483 307.374L161.108 311.014L157.839 309.295L154.57 311.014L155.194 307.374L152.549 304.796L156.204 304.265L157.839 300.953Z" fill="#D5D7E3"/>
<path opacity="0.3" d="M317.907 321.825H398.311C403.346 321.825 407.428 317.743 407.428 312.708C407.428 307.673 403.346 303.591 398.311 303.591H317.907C312.872 303.591 308.79 307.673 308.79 312.708C308.79 317.743 312.872 321.825 317.907 321.825Z" fill="#C5C8D8"/>
<path d="M325.707 316.032H406.111C411.146 316.032 415.228 311.95 415.228 306.915C415.228 301.88 411.146 297.798 406.111 297.798H325.707C320.672 297.798 316.59 301.88 316.59 306.915C316.589 311.949 320.671 316.032 325.707 316.032Z" fill="white" stroke="#F0F1F5" stroke-miterlimit="10"/>
<path d="M334.49 300.953L336.124 304.265L339.779 304.796L337.134 307.374L337.759 311.014L334.49 309.295L331.22 311.014L331.845 307.374L329.2 304.796L332.855 304.265L334.49 300.953Z" fill="#FFB72F"/>
<path d="M350.199 300.953L351.834 304.265L355.489 304.796L352.844 307.374L353.468 311.014L350.199 309.295L346.93 311.014L347.554 307.374L344.91 304.796L348.565 304.265L350.199 300.953Z" fill="#FFB72F"/>
<path d="M365.909 300.953L367.543 304.265L371.198 304.796L368.553 307.374L369.178 311.014L365.909 309.295L362.64 311.014L363.264 307.374L360.619 304.796L364.274 304.265L365.909 300.953Z" fill="#FFB72F"/>
<path d="M381.618 300.953L383.253 304.265L386.908 304.796L384.263 307.374L384.887 311.014L381.618 309.295L378.349 311.014L378.973 307.374L376.329 304.796L379.984 304.265L381.618 300.953Z" fill="#D5D7E3"/>
<path d="M397.328 300.953L398.962 304.265L402.617 304.796L399.973 307.374L400.597 311.014L397.328 309.295L394.059 311.014L394.683 307.374L392.038 304.796L395.693 304.265L397.328 300.953Z" fill="#D5D7E3"/>
<path d="M267.811 289.684C271.921 285.575 271.921 278.912 267.811 274.803C263.702 270.693 257.039 270.693 252.93 274.803C248.82 278.912 248.82 285.575 252.93 289.684C257.039 293.794 263.702 293.794 267.811 289.684Z" fill="#EAA105"/>
<path d="M255.54 282.244L259.198 286.112L265.21 278.376" stroke="white" stroke-width="2" stroke-miterlimit="10" stroke-linecap="round" stroke-linejoin="round"/>
<path d="M232.407 274.803C236.516 278.912 236.516 285.575 232.407 289.685C228.298 293.794 221.635 293.794 217.525 289.685C213.416 285.576 213.416 278.913 217.525 274.803C221.635 270.694 228.297 270.694 232.407 274.803Z" fill="#C43F00"/>
<path d="M221.547 278.825L228.385 285.663" stroke="white" stroke-width="2" stroke-miterlimit="10" stroke-linecap="round" stroke-linejoin="round"/>
<path d="M221.547 285.663L228.385 278.825" stroke="white" stroke-width="2" stroke-miterlimit="10" stroke-linecap="round" stroke-linejoin="round"/>
<path d="M150.776 284.675C152.117 279.02 148.62 273.349 142.965 272.008C137.311 270.666 131.639 274.163 130.298 279.818C128.957 285.473 132.453 291.144 138.108 292.485C143.763 293.827 149.434 290.33 150.776 284.675Z" fill="#EAA105"/>
<path d="M135.702 282.244L139.36 286.112L145.372 278.376" stroke="white" stroke-width="2" stroke-miterlimit="10" stroke-linecap="round" stroke-linejoin="round"/>
<path d="M112.569 274.803C116.678 278.912 116.678 285.575 112.569 289.685C108.46 293.794 101.797 293.794 97.687 289.685C93.578 285.576 93.578 278.913 97.687 274.803C101.796 270.694 108.459 270.694 112.569 274.803Z" fill="#C43F00"/>
<path d="M101.709 278.825L108.547 285.663" stroke="white" stroke-width="2" stroke-miterlimit="10" stroke-linecap="round" stroke-linejoin="round"/>
<path d="M101.709 285.663L108.547 278.825" stroke="white" stroke-width="2" stroke-miterlimit="10" stroke-linecap="round" stroke-linejoin="round"/>
<path d="M388.976 284.677C390.317 279.022 386.821 273.35 381.166 272.009C375.511 270.668 369.84 274.164 368.498 279.819C367.157 285.474 370.654 291.145 376.308 292.487C381.963 293.828 387.635 290.331 388.976 284.677Z" fill="#EAA105"/>
<path d="M373.9 282.244L377.559 286.112L383.571 278.376" stroke="white" stroke-width="2" stroke-miterlimit="10" stroke-linecap="round" stroke-linejoin="round"/>
<path d="M350.767 274.803C354.876 278.912 354.876 285.575 350.767 289.685C346.658 293.794 339.995 293.794 335.885 289.685C331.776 285.576 331.776 278.913 335.885 274.803C339.995 270.694 346.658 270.694 350.767 274.803Z" fill="#C43F00"/>
<path d="M339.908 278.825L346.746 285.663" stroke="white" stroke-width="2" stroke-miterlimit="10" stroke-linecap="round" stroke-linejoin="round"/>
<path d="M339.908 285.663L346.746 278.825" stroke="white" stroke-width="2" stroke-miterlimit="10" stroke-linecap="round" stroke-linejoin="round"/>
<path d="M75.142 399.587L63.509 317.587" stroke="#719D61" stroke-miterlimit="10"/>
<path d="M64.3 324.591L66.979 299.343L118.154 219.205C140.573 303.689 91.79 294.194 64.3 324.591Z" fill="#558657"/>
<path d="M64.3 324.591C48.245 287.882 93.788 255.522 118.154 219.205C135.272 283.746 69.911 277.306 64.3 324.591Z" fill="#659D67"/>
<path d="M92.2661 401.766C92.2661 331.602 108.983 316.837 108.983 316.837" stroke="#719D61" stroke-miterlimit="10"/>
<path d="M98.947 338.507C109.763 321.905 182.081 348.834 186.26 262.719C147.632 286.731 112.143 282.553 98.947 338.507Z" fill="#558657"/>
<path d="M98.947 338.507C113.941 305.209 162.248 309.687 186.26 262.719C147.632 286.731 112.143 282.553 98.947 338.507Z" fill="#659D67"/>
<path d="M117.158 349.71V398.651C117.158 406.753 110.586 413.313 102.484 413.313H56.9811C48.8791 413.313 42.3071 406.754 42.3071 398.651V349.71H117.158Z" fill="white" stroke="#C5C8D8" stroke-miterlimit="10"/>
<path d="M117.158 349.71V398.651C117.158 406.753 110.586 413.313 102.484 413.313H58.6572C75.6992 404.178 88.2352 380.637 99.8852 349.71H117.158Z" fill="#E1E2EA"/>
<path d="M41.2551 413.31H458.951" stroke="#241816" stroke-miterlimit="10"/>
<path d="M31.6851 413.31H11.4431" stroke="#241816" stroke-miterlimit="10"/>
<path opacity="0.3" d="M314.145 333.353L273.14 243.616L274.741 242.931C277.197 241.88 278.336 239.038 277.285 236.583C276.572 234.916 275.029 233.877 273.346 233.697C274.574 232.837 275.784 231.938 276.965 230.98C279.534 229.277 282.02 227.384 284.389 225.276C311.422 201.223 313.837 159.831 289.783 132.798C265.739 105.775 224.338 103.351 197.305 127.404C188.207 135.499 181.911 145.567 178.462 156.387C169.027 178.371 172.429 204.779 189.38 223.83C205.585 242.043 229.895 248.738 252.032 243.347C251.394 244.585 251.273 246.077 251.864 247.457C252.914 249.913 255.757 251.052 258.212 250.001L261.904 248.422L303.033 338.43C303.974 340.49 306.408 341.397 308.468 340.456L312.118 338.788C314.18 337.847 315.086 335.413 314.145 333.353Z" fill="#D5D7E3"/>
<path d="M312.002 171.792C316.713 137.854 293.021 106.523 259.084 101.812C225.146 97.1011 193.816 120.794 189.105 154.732C184.393 188.669 208.086 220 242.023 224.712C275.96 229.423 307.291 205.73 312.002 171.792Z" fill="#D5D7E3"/>
<mask id="mask3_113_22" style="mask-type:luminance" maskUnits="userSpaceOnUse" x="188" y="101" width="125" height="125">
<path d="M312.002 171.792C316.713 137.854 293.021 106.523 259.084 101.812C225.147 97.1009 193.816 120.794 189.105 154.732C184.393 188.669 208.086 220 242.023 224.712C275.96 229.423 307.291 205.73 312.002 171.792Z" fill="white"/>
</mask>
<g mask="url(#mask3_113_22)">
<path d="M263.087 177.685C272.182 178.308 284.455 172.942 284.455 172.942C284.455 172.942 283.02 141.027 280.41 130.279C277.654 118.933 247.555 105.509 235.814 124.72L263.087 177.685Z" fill="black"/>
<path d="M285.946 201.682L275.149 227.802L274.909 231.71L274.48 238.651L274.154 244.101L273.709 251.419L273.195 259.68H221.452L221.401 259.217L220.047 243.415L215.591 191.364L215.214 187.079L217.836 186.376L223.32 184.919L229.13 183.359L230.33 183.033L261.334 180.514L267.916 182.588L270.881 183.514C270.881 183.531 270.881 183.531 270.881 183.531L279.416 185.965L279.519 186.222L285.946 201.682Z" fill="#530046"/>
<path d="M279.417 185.965C277.6 193.78 276.003 204.638 276.003 204.638C265.089 193.384 229.139 206.871 229.139 206.871C229.139 206.871 230.828 201.681 229.885 200.756C226.046 196.968 222.018 192.221 217.836 186.376C217.75 186.239 217.647 186.102 217.545 185.965L217.939 185.862L218.505 185.708L229.011 182.726L249.543 176.916L267.899 182.486L279.417 185.965Z" fill="#D77347"/>
<path d="M257.726 195.654L236.279 196.339L235.117 159.962L264.3 159.03L265.215 187.67C265.352 191.943 261.999 195.518 257.726 195.654Z" fill="#D77347"/>
<path d="M264.929 178.679C253.561 181.713 243.627 176.487 244.436 155.66L264.249 155.027L264.929 178.679Z" fill="#B54A12"/>
<path d="M255.025 120.2C267.595 119.06 278.709 128.326 279.849 140.896L280.442 147.437C281.544 159.585 272.589 170.326 260.441 171.428L251.18 172.268C243.303 172.982 236.338 167.176 235.624 159.299L234.329 145.025C233.19 132.454 242.455 121.34 255.025 120.2Z" fill="#D77347"/>
<path d="M239.78 159.814L242.137 177.809C242.137 177.809 227.847 180.814 219.45 174.713C219.364 160.26 220.549 138.129 224.899 128.809C226.832 124.668 236.372 119.438 246.603 120.382L239.78 159.814Z" fill="black"/>
<path d="M272.919 148.954C274.15 148.954 275.147 147.527 275.147 145.766C275.147 144.005 274.15 142.578 272.919 142.578C271.689 142.578 270.691 144.005 270.691 145.766C270.691 147.527 271.689 148.954 272.919 148.954Z" fill="black"/>
<path d="M243.174 154.095C237.791 143.62 232.804 142.84 228.745 144.897C221.306 148.666 224.267 169.482 241.06 161.267L243.174 154.095Z" fill="#D77347"/>
<path d="M272.409 133.807C267.104 133.737 266.867 130.896 270.936 130.338C275.312 129.737 279.009 133.894 272.409 133.807Z" fill="black"/>
<path d="M254.16 135.393C248.941 136.345 248.162 133.603 252.047 132.272C256.226 130.841 260.654 134.208 254.16 135.393Z" fill="black"/>
<path d="M266.078 158.49C264.495 158.169 261.903 157.895 258.402 158.349C257.433 158.475 256.898 159.594 257.446 160.403C261.476 166.354 265.161 162.928 266.879 160.603C267.466 159.807 267.046 158.686 266.078 158.49Z" fill="#FDFAF7"/>
<path d="M267.099 157.232L267.345 155.224C269.362 155.471 270.698 154.271 271.275 153.065C271.844 151.875 271.941 150.106 270.503 148.712C268.664 146.926 266.735 144.822 265.073 141.548L266.878 140.633C268.404 143.643 270.199 145.598 271.912 147.259C273.731 149.024 274.197 151.645 273.1 153.937C271.993 156.25 269.638 157.542 267.099 157.232Z" fill="#B54A12"/>
<path d="M230.423 150.548L229.14 152.114L236.419 158.081L237.703 156.514L230.423 150.548Z" fill="#B54A12"/>
<path d="M257.16 150.12C258.39 150.12 259.388 148.693 259.388 146.932C259.388 145.171 258.39 143.744 257.16 143.744C255.93 143.744 254.932 145.171 254.932 146.932C254.932 148.693 255.93 150.12 257.16 150.12Z" fill="black"/>
<path d="M302.469 236.2L274.481 238.651L269.288 239.097L228.514 242.679L220.047 243.416L200.354 245.147C200.286 225.9 201.314 208.401 202.102 201.34C203.199 191.571 211.649 187.56 217.544 185.966L217.938 185.863L218.504 185.709L229.01 182.727L235.767 180.815L242.035 216.077C243.063 221.86 242.47 227.814 240.323 233.281L238.745 237.298L270.041 235.19C275.403 227.051 276.739 216.905 273.668 207.655L265.022 181.615L267.899 182.488L279.416 185.967L279.519 186.224L279.571 185.967C293.573 192.924 299.949 220.672 302.469 236.2Z" fill="black"/>
<path d="M237.702 139.888C251.41 139.425 252.258 120.451 252.258 120.451C252.258 120.451 235.109 116.029 237.702 139.888Z" fill="black"/>
<path d="M252.258 120.451C262.879 121.493 275.118 130.39 279.598 138.128C277.844 117.299 261.589 115.441 252.258 120.451Z" fill="black"/>
</g>
<path d="M333.282 317.867L327.912 320.71C326.413 321.503 324.555 320.932 323.762 319.433L271.84 221.354C271.047 219.856 271.618 217.998 273.117 217.204L278.487 214.36C279.986 213.566 281.844 214.138 282.637 215.637L334.559 313.716C335.352 315.216 334.78 317.074 333.282 317.867Z" fill="black"/>
<path d="M203.146 120.739C178.298 145.587 178.298 185.887 203.146 210.735C228.003 235.593 268.294 235.583 293.142 210.735C317.999 185.878 320.59 142.197 295.732 117.34C270.883 92.491 228.003 95.881 203.146 120.739ZM294.102 205.308C270.494 228.916 232.201 228.916 208.582 205.298C184.974 181.69 184.974 143.397 208.582 119.789C232.201 96.171 270.494 96.171 294.102 119.779C317.72 143.396 317.72 181.689 294.102 205.308Z" fill="#9BA0BD"/>
<path d="M272.296 233.396L290.562 224.29C292.351 223.398 293.079 221.225 292.187 219.435L291.102 217.258C290.21 215.469 288.037 214.741 286.247 215.633L267.981 224.739C266.192 225.631 265.464 227.804 266.356 229.593L267.441 231.77C268.334 233.56 270.507 234.288 272.296 233.396Z" fill="#9BA0BD"/>
<path d="M276.001 231.549L290.562 224.29C292.351 223.398 293.079 221.225 292.187 219.435L291.102 217.258C290.21 215.469 288.037 214.741 286.247 215.633L271.686 222.892C269.897 223.784 269.169 225.957 270.061 227.747L271.146 229.924C272.038 231.713 274.212 232.441 276.001 231.549Z" fill="#B0B4CB"/>
<path opacity="0.3" d="M291.385 120.702C314.387 143.704 314.837 181.904 291.835 204.906C268.843 227.898 231.099 226.992 208.097 203.99C185.105 180.998 185.105 143.704 208.097 120.712C231.1 97.711 268.393 97.711 291.385 120.702Z" fill="white"/>
<mask id="mask4_113_22" style="mask-type:luminance" maskUnits="userSpaceOnUse" x="190" y="103" width="119" height="119">
<path d="M291.385 120.702C314.387 143.704 314.887 181.858 291.885 204.86C268.893 227.852 231.099 226.992 208.097 203.989C185.105 180.997 185.105 143.703 208.097 120.711C231.1 97.711 268.393 97.711 291.385 120.702Z" fill="white"/>
</mask>
<g mask="url(#mask4_113_22)">
<path d="M318.125 214.263L294.922 237.466L168.684 111.229L191.888 88.025L318.125 214.263Z" fill="url(#paint0_linear_113_22)"/>
<path d="M288.413 243.974L274.608 257.78L148.37 131.543L162.176 117.737L288.413 243.974Z" fill="url(#paint1_linear_113_22)"/>
<path d="M341.617 190.77L327.812 204.576L201.574 78.339L215.38 64.533L341.617 190.77Z" fill="url(#paint2_linear_113_22)"/>
</g>
<path d="M205.442 114.01C179.865 139.587 179.865 181.068 205.442 206.645C231.029 232.232 272.5 232.222 298.078 206.645C323.664 181.058 323.664 139.596 298.078 114.009C272.501 88.433 231.029 88.423 205.442 114.01ZM294.146 202.714C270.747 226.113 232.794 226.113 209.384 202.704C185.985 179.305 185.985 141.352 209.384 117.953C232.793 94.544 270.747 94.544 294.146 117.943C317.555 141.351 317.555 179.304 294.146 202.714Z" fill="#D5D7E3"/>
<path opacity="0.3" d="M403.872 25.636H254.237C250.051 25.636 246.658 29.029 246.658 33.215V111.362L274.758 93.324H403.872C408.058 93.324 411.451 89.931 411.451 85.745V33.215C411.451 29.029 408.058 25.636 403.872 25.636Z" fill="#D5D7E3"/>
<path d="M410.124 18.336H260.489C256.303 18.336 252.91 21.729 252.91 25.915V102.22L279.559 86.024H410.124C414.31 86.024 417.703 82.631 417.703 78.445V25.915C417.703 21.729 414.31 18.336 410.124 18.336Z" fill="white" stroke="#C5C8D8" stroke-miterlimit="10"/>
<path d="M272.509 27.89H267.624C265.229 27.89 263.287 29.832 263.287 32.227V37.112C263.287 39.507 265.229 41.449 267.624 41.449H272.509C274.904 41.449 276.846 39.507 276.846 37.112V32.227C276.846 29.832 274.904 27.89 272.509 27.89Z" fill="#F0F1F5"/>
<path d="M272.509 45.92H267.624C265.229 45.92 263.287 47.862 263.287 50.257V55.142C263.287 57.537 265.229 59.479 267.624 59.479H272.509C274.904 59.479 276.846 57.537 276.846 55.142V50.257C276.846 47.862 274.904 45.92 272.509 45.92Z" fill="#F0F1F5"/>
<path d="M272.509 63.95H267.624C265.229 63.95 263.287 65.892 263.287 68.287V73.172C263.287 75.567 265.229 77.509 267.624 77.509H272.509C274.904 77.509 276.846 75.567 276.846 73.172V68.287C276.846 65.892 274.904 63.95 272.509 63.95Z" fill="#F0F1F5"/>
<path d="M285.104 34.67H404.239" stroke="#E1E2EA" stroke-width="5" stroke-miterlimit="10" stroke-linecap="round" stroke-linejoin="round"/>
<path d="M285.104 52.7H404.239" stroke="#E1E2EA" stroke-width="5" stroke-miterlimit="10" stroke-linecap="round" stroke-linejoin="round"/>
<path d="M285.104 70.73H404.239" stroke="#E1E2EA" stroke-width="5" stroke-miterlimit="10" stroke-linecap="round" stroke-linejoin="round"/>
<path d="M265.214 31.65L270.399 37.382L279.559 25.919" stroke="#C43F00" stroke-width="2" stroke-miterlimit="10"/>
<path d="M265.214 49.91L270.399 55.641L279.559 44.178" stroke="#EAA105" stroke-width="2" stroke-miterlimit="10"/>
<path d="M265.214 68.461L270.399 74.193L279.559 62.729" stroke="#659D67" stroke-width="2" stroke-miterlimit="10"/>
<path opacity="0.3" d="M105.523 36.711H183.88C186.684 36.711 188.957 38.984 188.957 41.788V131.551L199.336 143.895H105.524C102.72 143.895 100.447 141.622 100.447 138.818V41.788C100.446 38.984 102.719 36.711 105.523 36.711Z" fill="#D5D7E3"/>
<path d="M113.146 27.305H191.503C194.307 27.305 196.58 29.578 196.58 32.382V122.682L204.653 134.489H113.147C110.343 134.489 108.07 132.216 108.07 129.412V32.382C108.07 29.578 110.343 27.305 113.146 27.305Z" fill="white" stroke="#C5C8D8" stroke-miterlimit="10"/>
<path d="M185.264 48.731H163.546" stroke="#E1E2EA" stroke-width="5" stroke-miterlimit="10" stroke-linecap="round" stroke-linejoin="round"/>
<path d="M185.264 60.69H163.546" stroke="#E1E2EA" stroke-width="5" stroke-miterlimit="10" stroke-linecap="round" stroke-linejoin="round"/>
<path d="M185.264 85.275H120.274" stroke="#E1E2EA" stroke-width="5" stroke-miterlimit="10" stroke-linecap="round" stroke-linejoin="round"/>
<path d="M185.264 97.744H120.274" stroke="#E1E2EA" stroke-width="5" stroke-miterlimit="10" stroke-linecap="round" stroke-linejoin="round"/>
<path d="M185.264 110.213H120.274" stroke="#E1E2EA" stroke-width="5" stroke-miterlimit="10" stroke-linecap="round" stroke-linejoin="round"/>
<path d="M185.264 122.682H157.507" stroke="#E1E2EA" stroke-width="5" stroke-miterlimit="10" stroke-linecap="round" stroke-linejoin="round"/>
<path d="M134.756 76.296C145.65 76.296 154.481 67.4648 154.481 56.571C154.481 45.6772 145.65 36.846 134.756 36.846C123.862 36.846 115.031 45.6772 115.031 56.571C115.031 67.4648 123.862 76.296 134.756 76.296Z" fill="#E1E2EA"/>
<mask id="mask5_113_22" style="mask-type:luminance" maskUnits="userSpaceOnUse" x="115" y="36" width="40" height="41">
<path d="M134.756 76.296C145.65 76.296 154.481 67.4648 154.481 56.571C154.481 45.6772 145.65 36.846 134.756 36.846C123.862 36.846 115.031 45.6772 115.031 56.571C115.031 67.4648 123.862 76.296 134.756 76.296Z" fill="white"/>
</mask>
<g mask="url(#mask5_113_22)">
<path d="M138.738 61.154C141.63 61.352 145.532 59.646 145.532 59.646C145.532 59.646 145.076 49.499 144.246 46.081C143.37 42.474 133.8 38.205 130.067 44.314L138.738 61.154Z" fill="black"/>
<path d="M146.006 68.784L142.573 77.089L142.497 78.331L142.361 80.538L142.257 82.271L142.115 84.598L141.951 87.225H125.5L125.484 87.078L125.054 82.054L123.637 65.505L123.517 64.143L124.351 63.92L126.095 63.457L127.942 62.961L128.323 62.857L138.181 62.056L140.273 62.715L141.216 63.009C141.216 63.014 141.216 63.014 141.216 63.014L143.93 63.788L143.963 63.87L146.006 68.784Z" fill="#530046"/>
<path d="M143.93 63.786C143.352 66.271 142.845 69.723 142.845 69.723C139.375 66.145 127.945 70.433 127.945 70.433C127.945 70.433 128.482 68.783 128.182 68.489C126.961 67.285 125.681 65.775 124.351 63.917C124.324 63.873 124.291 63.83 124.258 63.786L124.383 63.753L124.563 63.704L127.903 62.756L134.431 60.909L140.267 62.68L143.93 63.786Z" fill="white"/>
<path d="M139.399 63.825C139.409 64.238 139.389 64.651 139.322 65.054H130.15L129.843 55.517L139.121 55.219L139.399 63.825Z" fill="white"/>
<path d="M136.175 42.877C140.172 42.515 143.705 45.461 144.068 49.457L144.257 51.537C144.607 55.399 141.76 58.814 137.898 59.165L134.953 59.432C132.448 59.659 130.234 57.813 130.007 55.309L129.595 50.771C129.232 46.773 132.178 43.239 136.175 42.877Z" fill="white"/>
<path d="M131.328 55.472L132.077 61.193C132.077 61.193 127.533 62.148 124.864 60.209C124.837 55.614 125.214 48.577 126.597 45.614C127.212 44.298 130.245 42.635 133.498 42.935L131.328 55.472Z" fill="black"/>
<path d="M132.407 53.654C130.695 50.323 129.11 50.076 127.819 50.73C125.454 51.928 126.395 58.547 131.734 55.935L132.407 53.654Z" fill="white"/>
<path d="M151.259 79.758L142.36 80.537L140.709 80.679L127.745 81.818L125.053 82.052L118.792 82.602C118.77 76.482 119.097 70.919 119.348 68.674C119.697 65.568 122.383 64.293 124.258 63.786L124.383 63.753L124.563 63.704L127.903 62.756L130.051 62.148L132.044 73.359C132.371 75.198 132.182 77.091 131.5 78.829L130.998 80.106L140.948 79.436C142.653 76.848 143.078 73.622 142.101 70.681L139.352 62.402L140.267 62.68L143.929 63.786L143.962 63.868L143.978 63.786C148.431 65.999 150.458 74.821 151.259 79.758Z" fill="black"/>
<path d="M130.667 49.136C135.025 48.989 135.295 42.956 135.295 42.956C135.295 42.956 129.843 41.55 130.667 49.136Z" fill="black"/>
<path d="M135.295 42.956C138.672 43.288 142.563 46.116 143.988 48.577C143.43 41.954 138.262 41.364 135.295 42.956Z" fill="black"/>
</g>
<defs>
<linearGradient id="paint0_linear_113_22" x1="169.804" y1="91.7944" x2="265.317" y2="183.869" gradientUnits="userSpaceOnUse">
<stop stop-color="white"/>
<stop offset="1" stop-color="white" stop-opacity="0"/>
</linearGradient>
<linearGradient id="paint1_linear_113_22" x1="145.258" y1="117.257" x2="240.771" y2="209.332" gradientUnits="userSpaceOnUse">
<stop stop-color="white"/>
<stop offset="1" stop-color="white" stop-opacity="0"/>
</linearGradient>
<linearGradient id="paint2_linear_113_22" x1="333.661" y1="199.811" x2="266.801" y2="129.513" gradientUnits="userSpaceOnUse">
<stop stop-color="white"/>
<stop offset="1" stop-color="white" stop-opacity="0"/>
</linearGradient>
</defs>
</svg>
