<svg width="21" height="20" viewBox="0 0 21 20" fill="none" xmlns="http://www.w3.org/2000/svg">
<path d="M3 5H4.66667H18" stroke="#3F37C9" stroke-width="1.66667" stroke-linecap="round" stroke-linejoin="round"/>
<path d="M16.3334 5.00001V16.6667C16.3334 17.1087 16.1578 17.5326 15.8453 17.8452C15.5327 18.1577 15.1088 18.3333 14.6667 18.3333H6.33341C5.89139 18.3333 5.46746 18.1577 5.1549 17.8452C4.84234 17.5326 4.66675 17.1087 4.66675 16.6667V5.00001M7.16675 5.00001V3.33334C7.16675 2.89131 7.34234 2.46739 7.6549 2.15483C7.96746 1.84227 8.39139 1.66667 8.83341 1.66667H12.1667C12.6088 1.66667 13.0327 1.84227 13.3453 2.15483C13.6578 2.46739 13.8334 2.89131 13.8334 3.33334V5.00001" stroke="#3F37C9" stroke-width="1.66667" stroke-linecap="round" stroke-linejoin="round"/>
</svg>
